<svg viewBox="0 0 744 924"><path d="M0 619l63 5q20 55 55.5 98.5T202 796l-32 44 46-35q62 37 140 46v52l73 21v-73q66-7 123.5-37t100-77 67-107.5T744 500t-25.5-130.5-70-109T544 184t-128-34L410 0h-36l-5 150q-69 5-129 34t-104.5 76.5-70 109T40 500q0 60 18 109zm79-119q0-61 22.5-115.5t61.5-96 91.5-67.5T367 190l-12 328-163-120 120 170-214 35q-9-25-14-50.5T79 500zm625 0q0 61-21.5 114.5T624 709t-87 68-108 34V689l5-18 120 62-82-118 190-129-232 62-12-358q60 5 112 31t90.5 68 61 96T704 500zM356 811q-55-6-106-32l106-81v113zm-130-46q-39-25-69.5-59.5T106 628l209 17z"/></svg>