<svg xmlns="http://www.w3.org/2000/svg" xmlns:xlink="http://www.w3.org/1999/xlink" version="1.1" viewbox="0 0 191 170">

  <g id="svg_1" class="">
    <polygon points="169,90.40000912547112 136.70001220703125,146.3000030219555 147.5,165.19999691843987 190.70001220703125,90.40000912547112 " id="svg_2"/>
    <polygon points="136.70001220703125,23.999984711408615 169,79.90000912547112 190.70001220703125,79.90000912547112 147.5,5.199996918439865 " id="svg_3"/>
    <polygon points="63,18.80000302195549 127.60000610351562,18.80000302195549 138.5,0 52.20001220703125,0 " id="svg_4"/>
    <polygon points="21.70001220703125,79.90000912547112 54,23.999984711408615 43.100006103515625,5.199996918439865 0,79.90000912547112 " id="svg_5"/>
    <polygon points="54,146.3000030219555 21.70001220703125,90.40000912547112 0,90.40000912547112 43.100006103515625,165.19999691843987 " id="svg_6"/>
    <polygon points="127.60000610351562,151.49998471140862 63,151.49998471140862 52.20001220703125,170.40000912547112 138.5,170.40000912547112 " id="svg_7"/>
    <path d="M123.89999999999998,25.199996918439865 h-57.2 l-6,0 l-3,5.2 l-28.6,49.5 l-3,5.2 l3,5.2 l28.6,49.5 l3,5.2 h6 l57.2,0 l6,0 l3,-5.2 l28.6,-49.5 l3,-5.2 l-3,-5.2 l-28.6,-49.5 l-3,-5.2 H123.89999999999998 zM145.10000000000002,84.19999691843987 l-25.7,44.6 h-51.5 l-25.7,-44.6 l25.7,-44.6 h51.5 L145.10000000000002,84.19999691843987 z" id="svg_8"/>
  </g>
</svg>
