<svg viewBox="0 0 926 748"><path d="M463 246.833q18 0 34.5-7.5t29-20 20-29.5 7.5-36-7.5-36-20-29.5-29-20-34.5-7.5q-19 0-35.5 7.5t-29 20-19.5 29.5-7 36 7 36 19.5 29.5 29 20 35.5 7.5zm-461 73q-1 8-1.5 15t-.5 15v14q6 38 22 67t37 51 44 37.5 42 25 32 14l13 4.5q5 2 8 6.5t1 10.5q-1 3-9 7.5t-21 7-29 2-33-6.5q9 9 23.5 22.5t35 29 46.5 31.5 57 30q30 13 63.5 23t61.5 15.5 47 6.5 20-4v-1h4l1 1q2 5 20.5 4t46.5-6.5 61.5-15 63.5-23.5 56-30 46.5-31.5 35.5-29 24-22.5q-17 6-33.5 6.5t-29.5-2-21-7-9-7.5q-2-13 9-17l12.5-4.5 32-14 42.5-24.5 44-37 37-51.5 22-67.5v-29l-2-15q-20 33-40.5 53.5t-37 32-27.5 15-13 3.5q-8 1-14-6-4-7-1-16 8-14 16.5-27.5t19.5-27.5q23-34 29.5-82.5t-9.5-99.5q-11-35-32.5-61t-49.5-45.5-59.5-33.5-63.5-25h-7q35 21 53.5 45.5t25 49.5 3 50-12.5 47q-19 53-72 105 37 60 42 113t-10.5 97.5-44.5 80-59.5 61-56.5 41.5-35 20h-9q-10-5-36-20.5t-56.5-41.5-59.5-61-44-79.5-10-97 42-113.5q-52-52-72-105-9-22-12.5-47t2.5-50 24.5-49.5T291-.167h-7q-31 11-62.5 25t-59.5 33.5-49.5 45.5-32.5 61q-16 51-10 99.5t29 82.5q11 14 20 27.5t16 27.5q4 6-1 16-4 7-14 6-1 0-12-3.5t-28-15-37.5-32-40.5-53.5z"/></svg>