<svg viewBox="0 0 788 782"><path d="M700 575l-3-3q10-26 16-55.5t6-60.5q0-61-21-115.5t-58-97-87.5-71T444 135v-4l-1-4L395 0l-50 131v4q-59 8-109.5 36.5t-88 71.5T89 340.5 68 456t23 119l-4 1L0 683l137-23q2 0 2-1 46 56 111 89.5T393 782t144-33.5T648 659h1q1 0 3 1h3l133 23zm-582 40q115-83 187.5-206.5T395 136q8 74 30.5 142.5t58 130 83 113.5T671 615q-65-29-133.5-44T395 556q-75 0-143.5 15T118 615zm275 130q-65 0-121.5-27T175 645q127-47 263-38 45 4 88.5 12.5T612 643q-41 48-96.5 75T393 745zM104 456q0-53 18-100.5t49.5-84.5 75-62.5T340 173q-17 92-58 176.5T175 500l-4 4q-2 2-3 3.5t-3 2.5l-4 5-20 19q-5 4-9.5 7t-9.5 8l-2 2q-8-22-12-45.5t-4-49.5zm577 0q0 49-15 93-60-51-106-114t-76-138q-12-31-20.5-61.5T448 173q50 10 93 35.5t74 63 48.5 84.5T681 456z"/></svg>