<svg xmlns="http://www.w3.org/2000/svg" xmlns:xlink="http://www.w3.org/1999/xlink" version="1.1" viewBox="0 0 90 71">
<g>
  <path d="M76.414,10.472001953125002 L55.082,22.513001953125 l-6.679,-22.513 l-6.7490000000000006,22.175 L25.956,3.9730019531249994 l7.434,22.346 l-21.655,-9.741 l16.688,17.241 L0,37.533001953125 l28.689,2.596 L14,59.692001953125 l20.468,-12.878 l-3.369,24.291 l11.533,-21.858 l11.32,19.722 l-0.37400000000000005,-22.714 l17.315,14.129 l-7.7540000000000004,-21.764 L90,38.012001953125 l-27.279,-7.1370000000000005 L76.414,10.472001953125002 zM72.37,35.946001953125 l-12.697000000000001,0.28700000000000003 l5.9350000000000005,16.657 L51.026,40.993001953125 L51.331,59.452001953125006 l-8.789,-15.313 l-7.075,13.409 l2.168,-15.638 l-13.652000000000001,8.59 l9.33,-12.426 l-10.89,-0.985 l11.179,-1.461 L22.441,24.096001953124997 l15.06,6.775 l-5.275,-15.855 L42.71,27.170001953125002 l5.663,-18.609 L53.6,26.179001953125002 l14.98,-8.456 l-9.837,14.658 L72.37,35.946001953125 z" id="svg_1" class=""/>
</g>
</svg>
